# File created by Blade
# Date/Time:  Fri Jan 16 17:18:57 2015
#---------------------------------------------------------
:version 1.10
:name HOM
:units
  mass 1.0
  length 1.000000
  angle deg
:documentation
     Acclaim Skeleton File
:root
   axis xyz
   order TX TY TZ RX RY RZ
   position 0.000000 0.000000 0.000000
   orientation 0 0 0
:bonedata
   begin
      id 1
      name Spine_dum
      direction 0.000000 1.000000 0.000000
      length 7.170412
      axis 0.0 0.0 0.0 xyz
   end
   begin
      id 2
      name LeftUpLeg_dum
      direction 1.000000 0.000000 0.000000
      length 4.318350
      axis 0.0 0.0 0.0 xyz
   end
   begin
      id 3
      name RightUpLeg_dum
      direction -1.000000 0.000000 0.000000
      length 4.318350
      axis 0.0 0.0 0.0 xyz
   end
   begin
      id 4
      name Spine
      direction 0.000000 1.000000 0.000000
      length 0.000000
      axis 0.0 0.0 0.0 xyz
      dof rx ry rz
   end
   begin
      id 5
      name Spine_dum1
      direction 0.000000 1.000000 0.000000
      length 14.276153
      axis 0.0 0.0 0.0 xyz
   end
   begin
      id 6
      name Spine_dum2
      direction 0.000000 1.000000 0.000000
      length 10.718243
      axis 0.0 0.0 0.0 xyz
   end
   begin
      id 7
      name Spine_dum3
      direction 0.000000 1.000000 0.000000
      length 10.718243
      axis 0.0 0.0 0.0 xyz
   end
   begin
      id 8
      name Head
      direction 0.000000 1.000000 0.000000
      length 4.527550
      axis 0.0 0.0 0.0 xyz
      dof rx ry rz
   end
   begin
      id 9
      name LeftShoulder
      direction 1.000000 0.000000 0.000000
      length 7.058872
      axis 0.0 0.0 -90.0 xyz
      dof rx ry rz
   end
   begin
      id 10
      name LeftArm
      direction 1.000000 0.000000 0.000000
      length 10.955525
      axis 0.0 0.0 -90.0 xyz
      dof rx ry rz
   end
   begin
      id 11
      name LeftForeArm
      direction 1.000000 0.000000 0.000000
      length 8.193716
      axis 0.0 0.0 -90.0 xyz
      dof ry rz rx
   end
   begin
      id 12
      name LeftHand
      direction 0.000000 0.000000 0.000000
      length 0.000000
      axis 0.0 0.0 -90.0 xyz
      dof rx ry rz
   end
   begin
      id 13
      name LeftHand_dum1
      direction 0.000000 0.000000 0.000000
      length 0.000000
      axis 0.0 0.0 -90.0 xyz
   end
   begin
      id 14
      name LeftHand_dum2
      direction 1.000000 0.000000 0.000000
      length 3.937000
      axis 0.0 0.0 -90.0 xyz
   end
   begin
      id 15
      name LeftHandThumb1
      direction 0.000000 0.000000 1.000000
      length 3.937000
      axis 0.0 0.0 -90.0 xyz
      dof rx rz ry
   end
   begin
      id 16
      name RightShoulder
      direction -1.000000 0.000000 0.000000
      length 7.058872
      axis 0.0 0.0 90.0 xyz
      dof rx ry rz
   end
   begin
      id 17
      name RightArm
      direction -1.000000 0.000000 0.000000
      length 10.955525
      axis 0.0 0.0 90.0 xyz
      dof rx ry rz
   end
   begin
      id 18
      name RightForeArm
      direction -1.000000 0.000000 0.000000
      length 8.193716
      axis 0.0 0.0 90.0 xyz
      dof ry rz rx
   end
   begin
      id 19
      name RightHand
      direction 0.000000 0.000000 0.000000
      length 0.000000
      axis 0.0 0.0 90.0 xyz
      dof rx ry rz
   end
   begin
      id 20
      name RightHand_dum1
      direction 0.000000 0.000000 0.000000
      length 0.000000
      axis 0.0 0.0 90.0 xyz
   end
   begin
      id 21
      name RightHand_dum2
      direction -1.000000 0.000000 0.000000
      length 3.937000
      axis 0.0 0.0 90.0 xyz
   end
   begin
      id 22
      name RightHandThumb1
      direction 0.000000 0.000000 1.000000
      length 3.937000
      axis 0.0 0.0 90.0 xyz
      dof rx rz ry
   end
   begin
      id 23
      name LeftUpLeg
      direction 0.000000 -1.000000 0.000000
      length 17.323638
      axis 0.0 0.0 0.0 xyz
      dof rx ry rz
   end
   begin
      id 24
      name LeftLeg
      direction 0.000000 -1.000000 0.000000
      length 16.270368
      axis 0.0 0.0 0.0 xyz
      dof rx ry rz
   end
   begin
      id 25
      name LeftFoot
      direction 0.000000 -0.258819 0.965926
      length 4.922846
      axis 15.0 0.0 0.0 xyz
      dof rx ry rz
   end
   begin
      id 26
      name LeftToeBase
      direction 0.000000 0.000000 1.000000
      length 2.952750
      axis 0.0 0.0 0.0 xyz
      dof rx ry rz
   end
   begin
      id 27
      name RightUpLeg
      direction 0.000000 -1.000000 0.000000
      length 17.323638
      axis 0.0 0.0 0.0 xyz
      dof rx ry rz
   end
   begin
      id 28
      name RightLeg
      direction 0.000000 -1.000000 0.000000
      length 16.270368
      axis 0.0 0.0 0.0 xyz
      dof rx ry rz
   end
   begin
      id 29
      name RightFoot
      direction 0.000000 -0.258819 0.965926
      length 4.922846
      axis 15.0 0.0 0.0 xyz
      dof rx ry rz
   end
   begin
      id 30
      name RightToeBase
      direction 0.000000 0.000000 1.000000
      length 2.952750
      axis 0.0 0.0 0.0 xyz
      dof rx ry rz
   end
:hierarchy
   begin
      root Spine_dum LeftUpLeg_dum RightUpLeg_dum
      Spine_dum Spine
      LeftUpLeg_dum LeftUpLeg
      RightUpLeg_dum RightUpLeg
      Spine Spine_dum1 Spine_dum2 Spine_dum3
      Spine_dum1 Head
      Spine_dum2 LeftShoulder
      Spine_dum3 RightShoulder
      LeftShoulder LeftArm
      LeftArm LeftForeArm
      LeftForeArm LeftHand
      LeftHand LeftHand_dum1 LeftHand_dum2
      LeftHand_dum1 LeftHandThumb1
      RightShoulder RightArm
      RightArm RightForeArm
      RightForeArm RightHand
      RightHand RightHand_dum1 RightHand_dum2
      RightHand_dum1 RightHandThumb1
      LeftUpLeg LeftLeg
      LeftLeg LeftFoot
      LeftFoot LeftToeBase
      RightUpLeg RightLeg
      RightLeg RightFoot
      RightFoot RightToeBase
   end

# File created by Blade
# Date/Time:  Fri Jan 16 17:19:08 2015
# Frame Rate: 120.000 fps
#------------------------------------------------------
:FULLY-SPECIFIED
:DEGREES
3401
root -5.352369 35.191883 -9.124560 1.233304 -2.045753 -6.117986
Spine -6.565388 -5.715461 6.954253
Head 10.446267 -3.629912 -5.269520
LeftShoulder -23.984877 11.842184 -12.650720
LeftArm 12.242467 -17.413123 -77.289886
LeftForeArm 14.693049 -0.000000 11.988033
LeftHand -0.076278 -0.000000 -3.558118
LeftHandThumb1 -26.253704 0.000000 33.147579
RightShoulder -20.685216 6.791686 -16.765728
RightArm -84.965253 73.400059 -32.473083
RightForeArm 56.284972 -0.000000 150.980648
RightHand 28.859463 0.000000 6.214346
RightHandThumb1 -24.326973 -0.000000 -32.862282
LeftUpLeg 9.566872 11.551471 6.608641
LeftLeg -9.609482 -0.000000 0.000000
LeftFoot -15.950006 28.010039 -7.907755
LeftToeBase 22.696355 -0.000000 -0.000000
RightUpLeg 6.855013 -6.433020 4.475647
RightLeg -4.447787 -0.000000 0.000000
RightFoot -5.971112 -28.958249 5.396381
RightToeBase 13.455225 -0.000000 -0.000000
3402
root -5.351370 35.192276 -9.130578 1.267945 -2.028515 -6.118662
Spine -6.583471 -5.654037 6.933485
Head 10.446738 -3.663678 -5.265685
LeftShoulder -23.989378 11.856730 -12.647788
LeftArm 12.240636 -17.447501 -77.327877
LeftForeArm 14.746675 -0.000000 11.944850
LeftHand -0.024843 -0.000000 -3.620168
LeftHandThumb1 -26.253704 0.000000 33.147579
RightShoulder -20.867712 6.702049 -16.846739
RightArm -84.717957 73.634421 -32.088765
RightForeArm 56.011736 -0.000000 151.825547
RightHand 29.543428 -0.000000 7.000766
RightHandThumb1 -24.326973 -0.000000 -32.862282
LeftUpLeg 9.528836 11.581020 6.601792
LeftLeg -9.632512 -0.000000 0.000000
LeftFoot -15.918799 27.972818 -7.885621
LeftToeBase 22.707103 -0.000000 -0.000000
RightUpLeg 6.810685 -6.436517 4.479930
RightLeg -4.446367 -0.000000 0.000000
RightFoot -5.958729 -28.960390 5.405644
RightToeBase 13.429679 -0.000000 -0.000000
3403
root -5.351638 35.192525 -9.136563 1.276028 -1.982478 -6.118520
Spine -6.561221 -5.625601 6.905260
Head 10.430163 -3.693097 -5.243317
LeftShoulder -23.980736 11.835540 -12.645396
LeftArm 12.200652 -17.507940 -77.348019
LeftForeArm 14.822736 -0.000000 11.936890
LeftHand -0.045432 -0.000000 -3.669693
LeftHandThumb1 -26.253704 0.000000 33.147579
RightShoulder -21.062863 6.664457 -16.936248
RightArm -84.216570 73.791463 -31.439789
RightForeArm 55.788673 -0.000000 152.623730
RightHand 29.810211 -0.000000 7.500347
RightHandThumb1 -24.326973 -0.000000 -32.862282
LeftUpLeg 9.500216 11.520898 6.596324
LeftLeg -9.640335 -0.000000 0.000000
LeftFoot -15.899155 27.999811 -7.875875
LeftToeBase 22.688663 -0.000000 -0.000000
RightUpLeg 6.803655 -6.455375 4.482481
RightLeg -4.460251 -0.000000 0.000000
RightFoot -5.947325 -28.974966 5.399649
RightToeBase 13.403843 -0.000000 -0.000000
3404
root -5.353618 35.192421 -9.142510 1.283582 -1.931175 -6.126454
Spine -6.537500 -5.615182 6.880566
Head 10.403138 -3.700039 -5.209747
LeftShoulder -23.985407 11.839060 -12.635067
LeftArm 12.163485 -17.529089 -77.385275
LeftForeArm 14.845444 -0.000000 11.954892
LeftHand -0.097247 0.000000 -3.729166
LeftHandThumb1 -26.253704 0.000000 33.147579
RightShoulder -21.251587 6.551753 -16.957141
RightArm -83.635992 74.027403 -30.684666
RightForeArm 55.640919 -0.000000 153.265390
RightHand 30.103546 -0.000000 7.851380
RightHandThumb1 -24.326973 -0.000000 -32.862282
LeftUpLeg 9.475086 11.507516 6.609748
LeftLeg -9.651736 -0.000000 0.000000
LeftFoot -15.895072 27.984325 -7.782060
LeftToeBase 22.912678 -0.000000 -0.000000
RightUpLeg 6.792253 -6.495740 4.498312
RightLeg -4.467454 -0.000000 0.000000
RightFoot -5.948649 -28.982977 5.427380
RightToeBase 13.356706 -0.000000 -0.000000
3405
root -5.354019 35.192477 -9.148256 1.299330 -1.888372 -6.124165
Spine -6.530005 -5.591406 6.852611
Head 10.393045 -3.738110 -5.187210
LeftShoulder -23.970752 11.837116 -12.620229
LeftArm 12.088491 -17.436698 -77.381029
LeftForeArm 14.733317 0.000000 11.967992
LeftHand -0.155945 -0.000000 -3.692352
LeftHandThumb1 -26.253704 0.000000 33.147579
RightShoulder -21.431003 6.454337 -16.956533
RightArm -82.906505 74.222423 -29.820566
RightForeArm 55.438111 0.000000 153.815215
RightHand 30.482730 -0.000000 8.387391
RightHandThumb1 -24.326973 -0.000000 -32.862282
LeftUpLeg 9.443220 11.452904 6.600245
LeftLeg -9.660729 -0.000000 0.000000
LeftFoot -15.873124 27.984380 -7.834375
LeftToeBase 22.752280 -0.000000 -0.000000
RightUpLeg 6.775900 -6.511671 4.500852
RightLeg -4.480499 -0.000000 0.000000
RightFoot -5.944873 -28.987269 5.409992
RightToeBase 13.452924 -0.000000 -0.000000
